
<svg width="484px" height="79px" viewBox="0 0 484 79" version="1.1" xmlns="http://www.w3.org/2000/svg" xmlns:xlink="http://www.w3.org/1999/xlink">
    <defs>
        <linearGradient x1="57.6843324%" y1="50%" x2="0%" y2="50%" id="linearGradient-1">
            <stop stop-color="#B6CBFB" offset="0%"></stop>
            <stop stop-color="#7F9CF5" offset="100%"></stop>
        </linearGradient>
    </defs>
    <g id="Page-1" stroke="none" strokeWidth="1" fill="none" fill-rule="evenodd">
        <g id="About-(Light-Theme)" transform="translate(-76.000000, -1119.000000)" fill-rule="nonzero">
            <g id="Group-5" transform="translate(76.000000, 1119.000000)">
                <path d="M21,46.989108 C30.3619215,35.625097 40.9322111,24.9419371 53.8330755,17.8842828 C66.7339399,10.8266285 82.2749802,7.69465525 96.3606633,11.8917961 C106.875468,15.0249028 115.837978,21.9175448 124.132509,29.1193492 C141.126887,43.8748777 156.797299,60.7689057 176.84217,70.9649224 C196.887041,81.160939 223.299086,83.0640163 240.3247,68.3447058 C253.799447,56.6952533 259.544441,36.5174491 275.635744,28.913826 C291.498021,21.418466 309.890112,29.4670965 325.986454,36.4419739 C347.845574,45.9126601 370.465884,53.5057322 393.60413,59.139535 C409.25676,62.9499021 425.380879,65.8706953 441.414948,64.338324 C457.449017,62.8059526 473.54221,56.3648476 484,44.0728683" id="Path" fill="#E2E8F0"></path>
                <path d="M0,36.9891154 C9.36192149,25.6250939 19.9322111,14.9419336 32.8330755,7.88428896 C45.7339399,0.826644361 61.2749802,-2.3053491 75.3606633,1.89179194 C85.8754677,5.02489873 94.8379284,11.9175411 103.132509,19.1193457 C120.126887,33.8748749 135.797299,50.7689037 155.84217,60.9649208 C175.887041,71.1609379 202.299086,73.0640152 219.3247,58.3447141 C232.799447,46.6952511 238.544441,26.517446 254.635744,18.9138326 C270.498021,11.4184722 288.890112,19.4670932 304.986454,26.4419708 C326.845574,35.9126574 349.465884,43.5057298 372.60413,49.1395329 C388.25676,52.9499002 404.380879,55.8707036 420.414948,54.3383322 C436.449017,52.8059607 452.54221,46.3648454 463,34.0728756" id="Path" fill="url(#linearGradient-1)"></path>
            </g>
        </g>
    </g>
</svg>