<svg width="484" height="79" xmlns="http://www.w3.org/2000/svg"><defs><linearGradient x1="57.684%" y1="50%" x2="0%" y2="50%" id="a"><stop stop-color="#B6CBFB" offset="0%"/><stop stop-color="#7F9CF5" offset="100%"/></linearGradient></defs><g fill-rule="nonzero" fill="none"><path d="M21 46.99c9.362-11.365 19.932-22.048 32.833-29.106 12.9-7.057 28.442-10.19 42.528-5.992 10.514 3.133 19.477 10.026 27.772 17.227 16.994 14.756 32.664 31.65 52.71 41.846 20.044 10.196 46.456 12.099 63.482-2.62 13.474-11.65 19.22-31.828 35.31-39.431 15.863-7.496 34.255.553 50.351 7.528a420.04 420.04 0 0067.618 22.698c15.653 3.81 31.777 6.73 47.81 5.198 16.035-1.532 32.128-7.973 42.586-20.265" fill="#2d3748"/><path d="M0 36.99C9.362 25.624 19.932 14.941 32.833 7.883c12.9-7.057 28.442-10.19 42.528-5.992 10.514 3.133 19.477 10.026 27.772 17.227 16.994 14.756 32.664 31.65 52.71 41.846 20.044 10.196 46.456 12.099 63.482-2.62 13.474-11.65 19.22-31.828 35.31-39.431 15.863-7.496 34.255.553 50.351 7.528a420.04 420.04 0 0067.618 22.698c15.653 3.81 31.777 6.73 47.81 5.198 16.035-1.532 32.128-7.973 42.586-20.265" fill="url(#a)"/></g></svg>